<svg width="24" height="24" viewBox="0 0 24 24" fill="none" xmlns="http://www.w3.org/2000/svg">
<path d="M21.86 3.12H1.86V16.82H21.86V3.12Z" fill="#FFEABB"/>
<path d="M4.8 12.69H9.39C9.54665 12.6752 9.70466 12.6933 9.85391 12.7431C10.0032 12.7929 10.1404 12.8734 10.2567 12.9793C10.3731 13.0852 10.4661 13.2142 10.5297 13.3581C10.5933 13.502 10.6262 13.6577 10.6262 13.815C10.6262 13.9723 10.5933 14.128 10.5297 14.2719C10.4661 14.4158 10.3731 14.5448 10.2567 14.6507C10.1404 14.7566 10.0032 14.8371 9.85391 14.8869C9.70466 14.9367 9.54665 14.9548 9.39 14.94H4.8C4.64335 14.9548 4.48533 14.9367 4.33608 14.8869C4.18683 14.8371 4.04962 14.7566 3.93325 14.6507C3.81688 14.5448 3.72391 14.4158 3.66029 14.2719C3.59667 14.128 3.56381 13.9723 3.56381 13.815C3.56381 13.6577 3.59667 13.502 3.66029 13.3581C3.72391 13.2142 3.81688 13.0852 3.93325 12.9793C4.04962 12.8734 4.18683 12.7929 4.33608 12.7431C4.48533 12.6933 4.64335 12.6752 4.8 12.69" fill="#F94060"/>
<path d="M21.87 3.12H19.92V16.82H21.87V3.12Z" fill="#F7BF75"/>
<path d="M13.44 15.31L11.17 19.23L13.08 19.25L14.04 20.88L16.65 16.37L13.44 15.31Z" fill="#F94060"/>
<path d="M15.49 17.11L17.67 20.88L18.63 19.25L20.53 19.23L18.27 15.31L15.49 17.11Z" fill="#F94060"/>
<path d="M18.37 14.62C18.37 15.1188 18.2219 15.6064 17.9446 16.0211C17.6673 16.4357 17.2731 16.7587 16.812 16.9491C16.351 17.1395 15.8438 17.1889 15.3547 17.0908C14.8656 16.9928 14.4166 16.7518 14.0646 16.3983C13.7125 16.0449 13.4733 15.595 13.3772 15.1055C13.2811 14.616 13.3324 14.109 13.5247 13.6487C13.717 13.1884 14.0415 12.7955 14.4573 12.5198C14.873 12.2441 15.3612 12.098 15.86 12.1C16.5266 12.1026 17.165 12.3693 17.6355 12.8416C18.1059 13.3139 18.37 13.9534 18.37 14.62" fill="#F7BF75"/>
<path d="M17.22 14.62C17.22 14.8914 17.1394 15.1567 16.9884 15.3822C16.8374 15.6077 16.6229 15.7833 16.3719 15.8866C16.121 15.99 15.845 16.0166 15.579 15.9629C15.313 15.9092 15.0689 15.7778 14.8777 15.5852C14.6865 15.3926 14.5568 15.1475 14.5051 14.8811C14.4534 14.6147 14.4819 14.3389 14.5872 14.0888C14.6924 13.8386 14.8696 13.6253 15.0962 13.476C15.3228 13.3267 15.5886 13.248 15.86 13.25C16.0394 13.25 16.2171 13.2855 16.3828 13.3545C16.5484 13.4234 16.6988 13.5245 16.8252 13.6519C16.9516 13.7792 17.0516 13.9303 17.1194 14.0965C17.1871 14.2626 17.2213 14.4406 17.22 14.62" fill="#F1734D"/>
<path d="M21.86 2.62H1.86C1.72739 2.62 1.60022 2.67267 1.50645 2.76644C1.41268 2.86021 1.36 2.98739 1.36 3.12V16.82C1.36256 16.9518 1.41606 17.0775 1.50928 17.1707C1.6025 17.2639 1.72819 17.3174 1.86 17.32H11.7L10.7 18.98C10.6561 19.056 10.633 19.1422 10.633 19.23C10.633 19.3178 10.6561 19.404 10.7 19.48C10.7436 19.5556 10.8063 19.6184 10.8817 19.6623C10.9571 19.7061 11.0427 19.7295 11.13 19.73H12.75L13.57 21.13C13.6149 21.2037 13.6781 21.2645 13.7534 21.3066C13.8288 21.3487 13.9137 21.3705 14 21.37V21.37C14.0879 21.3727 14.1748 21.3507 14.2508 21.3065C14.3268 21.2623 14.3889 21.1977 14.43 21.12L15.82 18.73L17.2 21.12C17.2411 21.1977 17.3032 21.2623 17.3792 21.3065C17.4552 21.3507 17.5421 21.3727 17.63 21.37V21.37C17.7163 21.3705 17.8012 21.3487 17.8766 21.3066C17.9519 21.2645 18.0151 21.2037 18.06 21.13L18.88 19.73H20.5C20.5873 19.7295 20.6729 19.7061 20.7483 19.6623C20.8237 19.6184 20.8864 19.5556 20.93 19.48C20.9739 19.404 20.997 19.3178 20.997 19.23C20.997 19.1422 20.9739 19.056 20.93 18.98L19.93 17.32H21.78C21.9126 17.32 22.0398 17.2673 22.1336 17.1735C22.2273 17.0798 22.28 16.9526 22.28 16.82V3.12C22.2815 3.00015 22.24 2.88374 22.1629 2.79196C22.0858 2.70019 21.9783 2.63916 21.86 2.62ZM14 19.89L13.47 18.99C13.4242 18.9163 13.3611 18.855 13.2861 18.8114C13.2112 18.7678 13.1267 18.7433 13.04 18.74H12L13.37 16.37C13.7911 16.9623 14.413 17.3816 15.12 17.55L15.24 17.74L14 19.89ZM15.82 16.63C15.4244 16.63 15.0378 16.5127 14.7089 16.2929C14.38 16.0732 14.1236 15.7608 13.9722 15.3954C13.8209 15.0299 13.7813 14.6278 13.8584 14.2398C13.9356 13.8519 14.1261 13.4955 14.4058 13.2158C14.6855 12.9361 15.0419 12.7456 15.4298 12.6684C15.8178 12.5913 16.2199 12.6309 16.5854 12.7822C16.9508 12.9336 17.2632 13.19 17.4829 13.5189C17.7027 13.8478 17.82 14.2344 17.82 14.63C17.8201 15.1536 17.6149 15.6563 17.2484 16.0303C16.882 16.4042 16.3835 16.6195 15.86 16.63H15.82ZM18.59 18.74C18.5033 18.7433 18.4188 18.7678 18.3439 18.8114C18.2689 18.855 18.2058 18.9163 18.16 18.99L17.63 19.89L16.3 17.58C16.6974 17.5224 17.0792 17.3856 17.4227 17.1778C17.7662 16.97 18.0646 16.6953 18.3 16.37L19.67 18.74H18.59ZM21.32 16.32H19.43L18.81 15.24C18.8502 15.0358 18.8703 14.8281 18.87 14.62C18.87 13.8243 18.5539 13.0613 17.9913 12.4987C17.4287 11.9361 16.6657 11.62 15.87 11.62C15.0744 11.62 14.3113 11.9361 13.7487 12.4987C13.1861 13.0613 12.87 13.8243 12.87 14.62C12.8697 14.8281 12.8898 15.0358 12.93 15.24L12.31 16.32H2.36V3.62H21.36L21.32 16.32Z" fill="black"/>
<path d="M16.33 14.12H15.38C15.2474 14.12 15.1202 14.1727 15.0265 14.2664C14.9327 14.3602 14.88 14.4874 14.88 14.62C14.88 14.7526 14.9327 14.8798 15.0265 14.9735C15.1202 15.0673 15.2474 15.12 15.38 15.12H16.33C16.4626 15.12 16.5898 15.0673 16.6836 14.9735C16.7773 14.8798 16.83 14.7526 16.83 14.62C16.83 14.4874 16.7773 14.3602 16.6836 14.2664C16.5898 14.1727 16.4626 14.12 16.33 14.12Z" fill="black"/>
<path d="M4.80001 15.44H9.39001C9.61412 15.4576 9.83946 15.4286 10.0518 15.355C10.2642 15.2813 10.4591 15.1645 10.6241 15.0118C10.7892 14.8592 10.9209 14.6741 11.011 14.4681C11.1011 14.2622 11.1476 14.0398 11.1476 13.815C11.1476 13.5902 11.1011 13.3678 11.011 13.1618C10.9209 12.9559 10.7892 12.7708 10.6241 12.6182C10.4591 12.4655 10.2642 12.3487 10.0518 12.275C9.83946 12.2014 9.61412 12.1724 9.39001 12.19H4.80001C4.57589 12.1724 4.35056 12.2014 4.13817 12.275C3.92579 12.3487 3.73094 12.4655 3.56587 12.6182C3.40081 12.7708 3.2691 12.9559 3.17902 13.1618C3.08894 13.3678 3.04243 13.5902 3.04243 13.815C3.04243 14.0398 3.08894 14.2622 3.17902 14.4681C3.2691 14.6741 3.40081 14.8592 3.56587 15.0118C3.73094 15.1645 3.92579 15.2813 4.13817 15.355C4.35056 15.4286 4.57589 15.4576 4.80001 15.44V15.44ZM4.80001 13.19H9.39001C9.47872 13.1788 9.56881 13.1865 9.65428 13.2128C9.73976 13.2391 9.81867 13.2832 9.88575 13.3423C9.95284 13.4015 10.0066 13.4742 10.0434 13.5557C10.0802 13.6372 10.0992 13.7256 10.0992 13.815C10.0992 13.9044 10.0802 13.9928 10.0434 14.0743C10.0066 14.1558 9.95284 14.2285 9.88575 14.2877C9.81867 14.3468 9.73976 14.3909 9.65428 14.4172C9.56881 14.4435 9.47872 14.4512 9.39001 14.44H4.80001C4.7113 14.4512 4.62121 14.4435 4.53573 14.4172C4.45026 14.3909 4.37135 14.3468 4.30426 14.2877C4.23718 14.2285 4.18344 14.1558 4.14664 14.0743C4.10983 13.9928 4.09079 13.9044 4.09079 13.815C4.09079 13.7256 4.10983 13.6372 4.14664 13.5557C4.18344 13.4742 4.23718 13.4015 4.30426 13.3423C4.37135 13.2832 4.45026 13.2391 4.53573 13.2128C4.62121 13.1865 4.7113 13.1788 4.80001 13.19V13.19Z" fill="black"/>
<path d="M10.48 6H13.24C13.3726 6 13.4998 5.94732 13.5935 5.85355C13.6873 5.75979 13.74 5.63261 13.74 5.5C13.74 5.36739 13.6873 5.24021 13.5935 5.14645C13.4998 5.05268 13.3726 5 13.24 5H10.48C10.3474 5 10.2202 5.05268 10.1264 5.14645C10.0327 5.24021 9.98 5.36739 9.98 5.5C9.98256 5.63181 10.0361 5.7575 10.1293 5.85072C10.2225 5.94394 10.3482 5.99744 10.48 6V6Z" fill="black"/>
<path d="M8 7.88H15.64C15.7726 7.88 15.8998 7.82733 15.9936 7.73356C16.0873 7.63979 16.14 7.51261 16.14 7.38C16.14 7.2474 16.0873 7.12022 15.9936 7.02645C15.8998 6.93268 15.7726 6.88 15.64 6.88H8C7.86739 6.88 7.74021 6.93268 7.64645 7.02645C7.55268 7.12022 7.5 7.2474 7.5 7.38C7.5 7.51261 7.55268 7.63979 7.64645 7.73356C7.74021 7.82733 7.86739 7.88 8 7.88Z" fill="black"/>
<path d="M8 9.81H15.64C15.7726 9.81 15.8998 9.75732 15.9936 9.66355C16.0873 9.56978 16.14 9.44261 16.14 9.31C16.14 9.17739 16.0873 9.05021 15.9936 8.95644C15.8998 8.86268 15.7726 8.81 15.64 8.81H8C7.86739 8.81 7.74021 8.86268 7.64645 8.95644C7.55268 9.05021 7.5 9.17739 7.5 9.31C7.5 9.44261 7.55268 9.56978 7.64645 9.66355C7.74021 9.75732 7.86739 9.81 8 9.81Z" fill="black"/>
</svg>
